<svg id="svg" version="1.1" xmlns="http://www.w3.org/2000/svg" xmlns:xlink="http://www.w3.org/1999/xlink" width="400" height="400" viewBox="0, 0, 400,400"><g id="svgg"><path id="path0" d="M148.400 11.797 L 148.400 23.594 123.500 23.697 L 98.600 23.800 98.494 36.094 L 98.388 48.388 86.094 48.494 L 73.800 48.600 73.694 61.094 L 73.589 73.589 61.094 73.694 L 48.600 73.800 48.494 86.094 L 48.388 98.388 36.094 98.494 L 23.800 98.600 23.697 123.500 L 23.594 148.400 11.797 148.400 L 0.000 148.400 0.000 212.400 L 0.000 276.400 11.800 276.400 L 23.600 276.400 23.600 288.500 L 23.599 300.600 36.122 300.481 L 48.645 300.363 49.125 301.281 C 49.457 301.916,49.635 305.595,49.702 313.200 L 49.800 324.200 74.800 324.547 C 92.647 324.794,99.884 325.023,100.094 325.347 C 100.256 325.596,100.391 331.119,100.394 337.620 C 100.398 346.273,100.529 349.569,100.880 349.920 C 101.243 350.283,107.149 350.400,125.012 350.400 L 148.665 350.400 149.145 351.300 C 149.496 351.958,149.595 355.460,149.513 364.300 L 149.400 376.400 200.000 376.401 L 250.600 376.401 250.482 364.152 C 250.375 353.080,250.429 351.831,251.044 351.152 C 251.695 350.432,252.739 350.400,275.448 350.400 C 298.494 350.400,299.184 350.378,299.586 349.626 C 299.843 349.146,300.000 344.622,300.000 337.696 C 300.000 326.551,300.001 326.539,300.926 325.670 L 301.852 324.800 325.646 324.800 C 343.619 324.800,349.557 324.683,349.920 324.320 C 350.270 323.970,350.400 320.849,350.400 312.782 C 350.400 298.728,348.607 300.331,364.152 300.482 L 376.401 300.600 376.400 288.500 L 376.400 276.400 388.200 276.400 L 400.000 276.400 400.000 212.400 L 400.000 148.400 388.200 148.400 L 376.400 148.400 376.400 124.033 C 376.400 110.631,376.291 99.381,376.157 99.033 C 375.943 98.475,374.474 98.400,363.763 98.400 L 351.612 98.400 351.506 86.100 L 351.400 73.800 338.900 73.694 L 326.400 73.589 326.400 61.627 C 326.400 55.048,326.291 49.381,326.157 49.033 C 325.943 48.475,324.474 48.400,313.763 48.400 L 301.612 48.400 301.506 36.100 L 301.400 23.800 276.500 23.697 L 251.600 23.594 251.600 11.797 L 251.600 0.000 200.000 0.000 L 148.400 0.000 148.400 11.797 M250.320 24.880 C 250.671 25.231,250.800 28.480,250.800 37.000 C 250.800 45.520,250.929 48.769,251.280 49.120 C 251.643 49.483,257.698 49.600,276.080 49.600 C 289.456 49.600,300.438 49.645,300.485 49.700 C 300.532 49.755,300.667 55.290,300.785 62.000 L 301.000 74.200 313.200 74.415 C 319.910 74.533,325.445 74.668,325.500 74.715 C 325.555 74.762,325.600 80.164,325.600 86.720 C 325.600 95.458,325.728 98.768,326.080 99.120 C 326.432 99.472,329.733 99.600,338.437 99.600 C 348.899 99.600,350.343 99.675,350.557 100.233 C 350.691 100.581,350.800 111.629,350.800 124.784 C 350.800 144.233,350.900 148.785,351.334 149.145 C 351.690 149.441,355.768 149.623,363.634 149.694 L 375.400 149.800 375.308 187.600 C 375.257 208.390,375.077 236.470,374.908 250.000 L 374.600 274.600 362.961 274.800 C 353.914 274.955,351.174 275.122,350.661 275.549 C 350.074 276.036,350.000 277.395,350.000 287.600 C 350.000 296.549,349.885 299.198,349.480 299.534 C 349.148 299.809,344.702 300.044,337.180 300.183 C 321.802 300.468,300.227 301.011,300.100 301.117 C 300.045 301.163,300.000 306.225,300.000 312.367 C 300.000 318.509,299.891 323.819,299.757 324.167 C 299.540 324.734,297.045 324.800,275.683 324.800 L 251.852 324.800 250.926 325.670 C 250.001 326.539,250.000 326.547,250.000 337.790 C 250.000 346.007,249.871 349.169,249.520 349.520 C 248.692 350.348,151.459 350.202,150.629 349.371 C 150.087 348.830,150.000 347.188,150.000 337.503 C 150.000 327.605,149.921 326.176,149.338 325.531 C 148.711 324.838,147.423 324.800,124.818 324.800 C 106.795 324.800,100.843 324.683,100.480 324.320 C 100.129 323.969,100.000 320.764,100.000 312.400 C 100.000 304.036,99.871 300.831,99.520 300.480 C 99.157 300.117,93.197 300.000,75.149 300.000 C 53.962 300.000,51.186 299.929,50.629 299.371 C 50.087 298.830,50.000 297.181,50.000 287.433 C 50.000 277.024,49.942 276.072,49.275 275.468 C 48.645 274.898,47.043 274.799,36.975 274.706 L 25.400 274.600 25.100 250.200 C 24.658 214.193,24.340 151.537,24.595 150.500 L 24.815 149.600 36.759 149.600 C 46.267 149.600,48.793 149.490,49.148 149.063 C 49.462 148.684,49.624 141.347,49.697 124.163 L 49.800 99.800 61.566 99.694 C 69.432 99.623,73.510 99.441,73.866 99.145 C 74.289 98.794,74.400 96.272,74.400 87.031 C 74.400 78.487,74.529 75.231,74.880 74.880 C 75.231 74.529,78.487 74.400,87.031 74.400 C 96.272 74.400,98.794 74.289,99.145 73.866 C 99.441 73.510,99.623 69.432,99.694 61.566 L 99.800 49.800 124.163 49.697 C 141.347 49.624,148.684 49.462,149.063 49.148 C 149.490 48.793,149.600 46.271,149.600 36.784 C 149.600 27.624,149.716 24.820,150.100 24.665 C 151.286 24.187,249.838 24.398,250.320 24.880 " stroke="none" fill="#1e2b36" fill-rule="evenodd"></path><path id="path1" d="M151.300 25.865 C 150.917 26.020,150.800 28.705,150.800 37.389 C 150.800 47.940,150.748 48.776,150.036 49.656 L 149.271 50.600 125.136 50.800 L 101.000 51.000 100.800 62.639 C 100.645 71.686,100.478 74.426,100.051 74.939 C 99.564 75.525,98.208 75.600,88.031 75.600 C 79.642 75.600,76.431 75.729,76.080 76.080 C 75.729 76.431,75.600 79.642,75.600 88.031 C 75.600 98.208,75.525 99.564,74.939 100.051 C 74.426 100.478,71.686 100.645,62.639 100.800 L 51.000 101.000 50.800 125.136 L 50.600 149.271 49.656 150.036 C 48.776 150.748,47.940 150.800,37.398 150.800 C 27.452 150.800,26.056 150.876,25.843 151.433 C 25.399 152.588,25.566 223.589,26.014 224.426 C 26.408 225.163,26.966 225.200,37.734 225.200 C 45.994 225.200,49.169 225.329,49.520 225.680 C 49.870 226.030,50.000 229.170,50.000 237.306 C 50.000 244.225,50.157 248.746,50.414 249.226 C 50.809 249.965,51.373 250.000,62.814 250.000 L 74.800 250.000 74.800 261.800 C 74.800 273.067,74.836 273.636,75.600 274.400 C 76.382 275.182,76.933 275.200,100.600 275.200 L 124.800 275.200 124.800 286.938 C 124.800 297.802,124.854 298.725,125.531 299.338 C 126.471 300.188,148.684 300.356,149.520 299.520 C 150.415 298.625,150.182 276.288,149.269 275.462 C 148.623 274.878,147.165 274.800,136.869 274.800 L 125.200 274.800 125.200 225.480 C 125.200 187.653,125.312 176.048,125.680 175.680 C 126.032 175.328,129.342 175.200,138.080 175.200 L 150.000 175.200 150.000 211.826 C 150.000 236.309,150.137 248.709,150.414 249.226 C 150.809 249.964,151.368 250.000,162.334 250.000 C 170.750 250.000,173.969 250.129,174.320 250.480 C 174.671 250.831,174.800 254.009,174.800 262.280 C 174.800 276.844,173.095 275.200,188.200 275.200 L 200.000 275.200 200.000 286.826 C 200.000 294.076,200.156 298.744,200.414 299.226 C 200.809 299.964,201.368 300.000,212.334 300.000 C 220.750 300.000,223.969 300.129,224.320 300.480 C 224.671 300.831,224.800 304.009,224.800 312.280 C 224.800 323.067,224.838 323.638,225.600 324.400 C 226.785 325.585,248.271 325.647,249.338 324.469 C 249.938 323.805,250.000 321.543,250.000 300.242 C 250.000 284.812,250.142 276.482,250.414 275.974 C 250.817 275.222,251.516 275.200,275.414 275.200 L 300.000 275.200 300.000 286.986 C 300.000 298.229,300.036 298.791,300.774 299.186 C 301.821 299.746,323.379 299.746,324.426 299.186 C 325.647 298.533,325.623 276.823,324.400 275.600 C 323.636 274.836,323.067 274.800,311.800 274.800 L 300.000 274.800 300.000 263.062 C 300.000 252.198,300.054 251.275,300.731 250.662 C 301.395 250.062,303.677 250.000,325.251 250.000 C 343.220 250.000,349.157 249.883,349.520 249.520 C 349.872 249.168,350.000 245.858,350.000 237.120 L 350.000 225.200 361.751 225.200 C 371.166 225.200,373.592 225.092,373.953 224.656 C 374.282 224.260,374.377 214.234,374.302 187.556 L 374.200 151.000 362.561 150.800 C 353.514 150.645,350.774 150.478,350.261 150.051 C 349.660 149.552,349.600 147.347,349.600 125.784 C 349.600 112.739,349.491 101.781,349.357 101.433 C 349.144 100.877,347.764 100.800,337.976 100.800 C 322.848 100.800,324.413 102.375,324.405 87.143 C 324.401 77.432,324.323 76.056,323.767 75.843 C 323.419 75.709,318.122 75.600,311.996 75.600 C 302.403 75.600,300.770 75.513,300.229 74.971 C 299.687 74.430,299.600 72.797,299.600 63.204 C 299.600 57.078,299.491 51.781,299.357 51.433 C 299.140 50.866,296.642 50.800,275.246 50.800 C 254.291 50.800,251.270 50.724,250.489 50.177 C 249.605 49.558,249.600 49.485,249.600 38.057 C 249.600 29.648,249.471 26.431,249.120 26.080 C 248.638 25.598,152.485 25.387,151.300 25.865 M224.026 50.414 C 224.763 50.809,224.800 51.367,224.800 62.214 C 224.800 73.067,224.837 73.637,225.600 74.400 C 226.382 75.182,226.933 75.200,250.120 75.200 C 268.036 75.200,273.957 75.317,274.320 75.680 C 274.670 76.030,274.800 79.180,274.800 87.349 C 274.800 101.620,273.195 100.000,287.330 100.000 C 301.624 100.000,299.998 98.389,300.006 112.562 C 300.010 118.935,300.176 124.060,300.391 124.400 C 300.711 124.906,302.571 125.018,312.266 125.118 C 319.723 125.194,323.944 125.387,324.281 125.667 C 325.012 126.274,325.051 198.789,324.320 199.520 C 323.969 199.871,320.797 200.000,312.549 200.000 C 302.817 200.000,301.170 200.087,300.629 200.629 C 300.087 201.170,300.000 202.817,300.000 212.549 C 300.000 220.797,299.871 223.969,299.520 224.320 C 298.824 225.016,226.376 225.016,225.680 224.320 C 224.987 223.627,224.987 176.373,225.680 175.680 C 226.030 175.330,229.201 175.197,237.380 175.187 C 246.076 175.177,248.757 175.055,249.300 174.643 C 249.938 174.159,250.000 173.095,250.000 162.600 C 250.000 152.105,249.938 151.041,249.300 150.557 C 248.757 150.145,246.076 150.023,237.380 150.013 C 229.201 150.003,226.030 149.870,225.680 149.520 C 225.329 149.169,225.200 146.008,225.200 137.795 C 225.200 123.189,226.812 124.800,212.198 124.800 C 201.366 124.800,200.809 124.763,200.414 124.026 C 200.157 123.546,200.000 119.025,200.000 112.106 C 200.000 103.970,199.870 100.830,199.520 100.480 C 199.169 100.129,195.964 100.000,187.600 100.000 C 179.236 100.000,176.031 99.871,175.680 99.520 C 174.830 98.670,175.005 51.678,175.862 50.731 C 176.640 49.872,222.449 49.570,224.026 50.414 M149.520 75.680 C 150.205 76.365,150.205 98.835,149.520 99.520 C 149.168 99.872,145.858 100.000,137.120 100.000 L 125.200 100.000 125.200 88.080 C 125.200 79.342,125.328 76.032,125.680 75.680 C 126.365 74.995,148.835 74.995,149.520 75.680 M124.600 112.400 L 124.600 124.600 112.400 124.600 L 100.200 124.600 100.094 113.106 C 99.991 102.014,100.016 101.584,100.800 100.800 C 101.584 100.016,102.014 99.991,113.106 100.094 L 124.600 100.200 124.600 112.400 M100.000 174.553 L 100.000 223.907 99.100 224.148 C 97.937 224.460,77.278 224.464,76.117 224.152 C 75.236 223.916,75.234 223.894,75.117 212.343 C 75.018 202.579,74.906 200.711,74.400 200.391 C 74.060 200.176,68.961 200.010,62.631 200.006 C 52.806 200.001,51.375 199.920,50.731 199.338 C 49.624 198.336,49.606 176.881,50.712 175.880 C 51.324 175.326,53.020 175.220,62.879 175.118 C 69.180 175.053,74.484 174.850,74.667 174.667 C 74.850 174.484,75.049 163.517,75.109 150.297 C 75.185 133.562,75.352 126.099,75.658 125.730 C 76.005 125.312,78.617 125.200,88.049 125.200 L 100.000 125.200 100.000 174.553 M174.600 150.000 L 174.600 174.600 162.300 174.706 L 150.000 174.812 150.000 150.779 C 150.000 134.861,150.141 126.484,150.417 125.968 C 150.818 125.218,151.290 125.192,162.717 125.294 L 174.600 125.400 174.600 150.000 M349.226 200.414 C 349.965 200.809,350.000 201.373,350.000 212.820 L 350.000 224.812 337.700 224.706 L 325.400 224.600 325.294 213.038 C 325.199 202.704,325.258 201.398,325.856 200.738 C 326.635 199.877,347.678 199.585,349.226 200.414 M99.367 225.843 C 100.193 226.160,100.338 248.702,99.520 249.520 C 99.168 249.872,95.858 250.000,87.120 250.000 L 75.200 250.000 75.200 238.033 C 75.200 228.834,75.316 226.020,75.700 225.865 C 76.421 225.574,98.613 225.553,99.367 225.843 M224.357 250.548 C 224.680 250.937,224.781 254.511,224.706 262.848 L 224.600 274.600 212.300 274.706 L 200.000 274.812 200.000 263.137 C 200.000 252.836,200.078 251.377,200.662 250.731 C 201.542 249.760,223.561 249.589,224.357 250.548 " stroke="none" fill="#dc84a4" fill-rule="evenodd"></path><path id="path2" d="M150.100 24.665 C 149.716 24.820,149.600 27.624,149.600 36.784 C 149.600 46.271,149.490 48.793,149.063 49.148 C 148.684 49.462,141.347 49.624,124.163 49.697 L 99.800 49.800 99.694 61.566 C 99.623 69.432,99.441 73.510,99.145 73.866 C 98.794 74.289,96.272 74.400,87.031 74.400 C 78.487 74.400,75.231 74.529,74.880 74.880 C 74.529 75.231,74.400 78.487,74.400 87.031 C 74.400 96.272,74.289 98.794,73.866 99.145 C 73.510 99.441,69.432 99.623,61.566 99.694 L 49.800 99.800 49.697 124.163 C 49.624 141.347,49.462 148.684,49.148 149.063 C 48.793 149.490,46.267 149.600,36.759 149.600 L 24.815 149.600 24.595 150.500 C 24.340 151.537,24.658 214.193,25.100 250.200 L 25.400 274.600 36.975 274.706 C 47.043 274.799,48.645 274.898,49.275 275.468 C 49.942 276.072,50.000 277.024,50.000 287.433 C 50.000 297.181,50.087 298.830,50.629 299.371 C 51.186 299.929,53.962 300.000,75.149 300.000 C 93.197 300.000,99.157 300.117,99.520 300.480 C 99.871 300.831,100.000 304.036,100.000 312.400 C 100.000 320.764,100.129 323.969,100.480 324.320 C 100.843 324.683,106.795 324.800,124.818 324.800 C 147.423 324.800,148.711 324.838,149.338 325.531 C 149.921 326.176,150.000 327.605,150.000 337.503 C 150.000 347.188,150.087 348.830,150.629 349.371 C 151.459 350.202,248.692 350.348,249.520 349.520 C 249.871 349.169,250.000 346.007,250.000 337.790 C 250.000 326.547,250.001 326.539,250.926 325.670 L 251.852 324.800 275.683 324.800 C 297.045 324.800,299.540 324.734,299.757 324.167 C 299.891 323.819,300.000 318.509,300.000 312.367 C 300.000 306.225,300.045 301.163,300.100 301.117 C 300.227 301.011,321.802 300.468,337.180 300.183 C 344.702 300.044,349.148 299.809,349.480 299.534 C 349.885 299.198,350.000 296.549,350.000 287.600 C 350.000 277.395,350.074 276.036,350.661 275.549 C 351.174 275.122,353.914 274.955,362.961 274.800 L 374.600 274.600 374.908 250.000 C 375.077 236.470,375.257 208.390,375.308 187.600 L 375.400 149.800 363.634 149.694 C 355.768 149.623,351.690 149.441,351.334 149.145 C 350.900 148.785,350.800 144.233,350.800 124.784 C 350.800 111.629,350.691 100.581,350.557 100.233 C 350.343 99.675,348.899 99.600,338.437 99.600 C 329.733 99.600,326.432 99.472,326.080 99.120 C 325.728 98.768,325.600 95.458,325.600 86.720 C 325.600 80.164,325.555 74.762,325.500 74.715 C 325.445 74.668,319.910 74.533,313.200 74.415 L 301.000 74.200 300.785 62.000 C 300.667 55.290,300.532 49.755,300.485 49.700 C 300.438 49.645,289.456 49.600,276.080 49.600 C 257.698 49.600,251.643 49.483,251.280 49.120 C 250.929 48.769,250.800 45.520,250.800 37.000 C 250.800 28.480,250.671 25.231,250.320 24.880 C 249.838 24.398,151.286 24.187,150.100 24.665 M249.120 26.080 C 249.471 26.431,249.600 29.648,249.600 38.057 C 249.600 49.485,249.605 49.558,250.489 50.177 C 251.270 50.724,254.291 50.800,275.246 50.800 C 296.642 50.800,299.140 50.866,299.357 51.433 C 299.491 51.781,299.600 57.078,299.600 63.204 C 299.600 72.797,299.687 74.430,300.229 74.971 C 300.770 75.513,302.403 75.600,311.996 75.600 C 318.122 75.600,323.419 75.709,323.767 75.843 C 324.323 76.056,324.401 77.432,324.405 87.143 C 324.413 102.375,322.848 100.800,337.976 100.800 C 347.764 100.800,349.144 100.877,349.357 101.433 C 349.491 101.781,349.600 112.739,349.600 125.784 C 349.600 147.347,349.660 149.552,350.261 150.051 C 350.774 150.478,353.514 150.645,362.561 150.800 L 374.200 151.000 374.302 187.556 C 374.377 214.234,374.282 224.260,373.953 224.656 C 373.592 225.092,371.166 225.200,361.751 225.200 L 350.000 225.200 350.000 237.120 C 350.000 245.858,349.872 249.168,349.520 249.520 C 349.157 249.883,343.220 250.000,325.251 250.000 C 303.677 250.000,301.395 250.062,300.731 250.662 C 300.054 251.275,300.000 252.198,300.000 263.062 L 300.000 274.800 311.800 274.800 C 323.067 274.800,323.636 274.836,324.400 275.600 C 325.623 276.823,325.647 298.533,324.426 299.186 C 323.379 299.746,301.821 299.746,300.774 299.186 C 300.036 298.791,300.000 298.229,300.000 286.986 L 300.000 275.200 275.414 275.200 C 251.516 275.200,250.817 275.222,250.414 275.974 C 250.142 276.482,250.000 284.812,250.000 300.242 C 250.000 321.543,249.938 323.805,249.338 324.469 C 248.271 325.647,226.785 325.585,225.600 324.400 C 224.838 323.638,224.800 323.067,224.800 312.280 C 224.800 304.009,224.671 300.831,224.320 300.480 C 223.969 300.129,220.750 300.000,212.334 300.000 C 201.368 300.000,200.809 299.964,200.414 299.226 C 200.156 298.744,200.000 294.076,200.000 286.826 L 200.000 275.200 188.200 275.200 C 173.095 275.200,174.800 276.844,174.800 262.280 C 174.800 254.009,174.671 250.831,174.320 250.480 C 173.969 250.129,170.750 250.000,162.334 250.000 C 151.368 250.000,150.809 249.964,150.414 249.226 C 150.137 248.709,150.000 236.309,150.000 211.826 L 150.000 175.200 138.080 175.200 C 129.342 175.200,126.032 175.328,125.680 175.680 C 125.312 176.048,125.200 187.653,125.200 225.480 L 125.200 274.800 136.869 274.800 C 147.165 274.800,148.623 274.878,149.269 275.462 C 150.182 276.288,150.415 298.625,149.520 299.520 C 148.684 300.356,126.471 300.188,125.531 299.338 C 124.854 298.725,124.800 297.802,124.800 286.938 L 124.800 275.200 100.600 275.200 C 76.933 275.200,76.382 275.182,75.600 274.400 C 74.836 273.636,74.800 273.067,74.800 261.800 L 74.800 250.000 62.814 250.000 C 51.373 250.000,50.809 249.965,50.414 249.226 C 50.157 248.746,50.000 244.225,50.000 237.306 C 50.000 229.170,49.870 226.030,49.520 225.680 C 49.169 225.329,45.994 225.200,37.734 225.200 C 26.966 225.200,26.408 225.163,26.014 224.426 C 25.566 223.589,25.399 152.588,25.843 151.433 C 26.056 150.876,27.452 150.800,37.398 150.800 C 47.940 150.800,48.776 150.748,49.656 150.036 L 50.600 149.271 50.800 125.136 L 51.000 101.000 62.639 100.800 C 71.686 100.645,74.426 100.478,74.939 100.051 C 75.525 99.564,75.600 98.208,75.600 88.031 C 75.600 79.642,75.729 76.431,76.080 76.080 C 76.431 75.729,79.642 75.600,88.031 75.600 C 98.208 75.600,99.564 75.525,100.051 74.939 C 100.478 74.426,100.645 71.686,100.800 62.639 L 101.000 51.000 125.136 50.800 L 149.271 50.600 150.036 49.656 C 150.748 48.776,150.800 47.940,150.800 37.389 C 150.800 28.705,150.917 26.020,151.300 25.865 C 152.485 25.387,248.638 25.598,249.120 26.080 M150.417 125.968 C 150.141 126.484,150.000 134.861,150.000 150.779 L 150.000 174.812 162.300 174.706 L 174.600 174.600 174.600 150.000 L 174.600 125.400 162.717 125.294 C 151.290 125.192,150.818 125.218,150.417 125.968 M325.856 200.738 C 325.258 201.398,325.199 202.704,325.294 213.038 L 325.400 224.600 337.700 224.706 L 350.000 224.812 350.000 212.820 C 350.000 201.373,349.965 200.809,349.226 200.414 C 347.678 199.585,326.635 199.877,325.856 200.738 M75.700 225.865 C 75.316 226.020,75.200 228.834,75.200 238.033 L 75.200 250.000 87.120 250.000 C 95.858 250.000,99.168 249.872,99.520 249.520 C 100.338 248.702,100.193 226.160,99.367 225.843 C 98.613 225.553,76.421 225.574,75.700 225.865 M200.662 250.731 C 200.078 251.377,200.000 252.836,200.000 263.137 L 200.000 274.812 212.300 274.706 L 224.600 274.600 224.706 262.848 C 224.781 254.511,224.680 250.937,224.357 250.548 C 223.561 249.589,201.542 249.760,200.662 250.731 " stroke="none" fill="#7c347c" fill-rule="evenodd"></path><path id="path3" d="M175.862 50.731 C 175.005 51.678,174.830 98.670,175.680 99.520 C 176.031 99.871,179.236 100.000,187.600 100.000 C 195.964 100.000,199.169 100.129,199.520 100.480 C 199.870 100.830,200.000 103.970,200.000 112.106 C 200.000 119.025,200.157 123.546,200.414 124.026 C 200.809 124.763,201.366 124.800,212.198 124.800 C 226.812 124.800,225.200 123.189,225.200 137.795 C 225.200 146.008,225.329 149.169,225.680 149.520 C 226.030 149.870,229.201 150.003,237.380 150.013 C 246.076 150.023,248.757 150.145,249.300 150.557 C 249.938 151.041,250.000 152.105,250.000 162.600 C 250.000 173.095,249.938 174.159,249.300 174.643 C 248.757 175.055,246.076 175.177,237.380 175.187 C 229.201 175.197,226.030 175.330,225.680 175.680 C 224.987 176.373,224.987 223.627,225.680 224.320 C 226.376 225.016,298.824 225.016,299.520 224.320 C 299.871 223.969,300.000 220.797,300.000 212.549 C 300.000 202.817,300.087 201.170,300.629 200.629 C 301.170 200.087,302.817 200.000,312.549 200.000 C 320.797 200.000,323.969 199.871,324.320 199.520 C 325.051 198.789,325.012 126.274,324.281 125.667 C 323.944 125.387,319.723 125.194,312.266 125.118 C 302.571 125.018,300.711 124.906,300.391 124.400 C 300.176 124.060,300.010 118.935,300.006 112.562 C 299.998 98.389,301.624 100.000,287.330 100.000 C 273.195 100.000,274.800 101.620,274.800 87.349 C 274.800 79.180,274.670 76.030,274.320 75.680 C 273.957 75.317,268.036 75.200,250.120 75.200 C 226.933 75.200,226.382 75.182,225.600 74.400 C 224.837 73.637,224.800 73.067,224.800 62.214 C 224.800 51.367,224.763 50.809,224.026 50.414 C 222.449 49.570,176.640 49.872,175.862 50.731 M125.680 75.680 C 125.328 76.032,125.200 79.342,125.200 88.080 L 125.200 100.000 137.120 100.000 C 145.858 100.000,149.168 99.872,149.520 99.520 C 150.205 98.835,150.205 76.365,149.520 75.680 C 148.835 74.995,126.365 74.995,125.680 75.680 M100.800 100.800 C 100.016 101.584,99.991 102.014,100.094 113.106 L 100.200 124.600 112.400 124.600 L 124.600 124.600 124.600 112.400 L 124.600 100.200 113.106 100.094 C 102.014 99.991,101.584 100.016,100.800 100.800 M249.557 100.948 C 249.880 101.337,249.982 104.859,249.906 113.048 L 249.800 124.600 238.238 124.706 C 227.904 124.801,226.598 124.742,225.938 124.144 C 225.020 123.313,224.780 101.780,225.680 100.880 C 226.424 100.136,248.936 100.200,249.557 100.948 M75.658 125.730 C 75.352 126.099,75.185 133.562,75.109 150.297 C 75.049 163.517,74.850 174.484,74.667 174.667 C 74.484 174.850,69.180 175.053,62.879 175.118 C 53.020 175.220,51.324 175.326,50.712 175.880 C 49.606 176.881,49.624 198.336,50.731 199.338 C 51.375 199.920,52.806 200.001,62.631 200.006 C 68.961 200.010,74.060 200.176,74.400 200.391 C 74.906 200.711,75.018 202.579,75.117 212.343 C 75.234 223.894,75.236 223.916,76.117 224.152 C 77.278 224.464,97.937 224.460,99.100 224.148 L 100.000 223.907 100.000 174.553 L 100.000 125.200 88.049 125.200 C 78.617 125.200,76.005 125.312,75.658 125.730 M274.357 125.748 C 274.680 126.137,274.781 129.711,274.706 138.048 L 274.600 149.800 263.238 149.906 C 253.090 150.001,251.798 149.941,251.138 149.344 C 250.385 148.662,249.941 126.192,250.667 125.467 C 251.237 124.896,273.873 125.165,274.357 125.748 M299.520 150.880 C 300.264 151.624,300.199 173.737,299.452 174.357 C 299.063 174.680,295.489 174.781,287.152 174.706 L 275.400 174.600 275.294 163.005 C 275.235 156.628,275.275 151.183,275.381 150.905 C 275.654 150.194,298.810 150.170,299.520 150.880 M274.706 187.152 C 274.781 195.489,274.680 199.063,274.357 199.452 C 273.737 200.199,251.624 200.264,250.880 199.520 C 250.040 198.680,250.213 176.870,251.067 175.925 C 251.691 175.237,252.489 175.195,263.167 175.294 L 274.600 175.400 274.706 187.152 " stroke="none" fill="#e5d7bb" fill-rule="evenodd"></path><path id="path4" d="M26.097 350.100 L 26.200 374.200 36.800 374.316 C 42.630 374.380,47.985 374.327,48.700 374.198 L 50.000 373.964 50.000 362.644 C 50.000 348.375,48.372 350.000,62.670 350.000 C 73.018 350.000,73.927 349.944,74.538 349.269 C 75.519 348.184,75.547 326.619,74.567 326.243 C 74.219 326.109,63.148 326.000,49.964 326.000 L 25.994 326.000 26.097 350.100 M350.700 351.232 C 349.564 351.894,349.634 373.376,350.774 373.986 C 351.931 374.605,373.296 374.544,373.920 373.920 C 374.604 373.236,374.604 351.964,373.920 351.280 C 373.301 350.661,351.756 350.617,350.700 351.232 " stroke="none" fill="#74a444" fill-rule="evenodd"></path><path id="path5" d="M24.209 324.435 C 24.090 324.746,24.039 336.430,24.096 350.400 L 24.200 375.800 49.000 375.904 C 68.146 375.984,74.074 375.893,75.000 375.507 C 75.826 375.162,79.880 374.943,88.000 374.803 L 99.800 374.600 100.152 350.733 C 100.345 337.606,100.394 326.430,100.260 325.898 L 100.018 324.931 81.709 324.667 C 24.111 323.839,24.436 323.840,24.209 324.435 M86.774 325.409 C 94.388 325.548,98.733 325.778,99.074 326.061 C 99.741 326.615,99.845 347.995,99.186 349.226 C 98.792 349.963,98.237 350.000,87.656 350.000 C 73.281 350.000,74.845 348.427,74.706 363.019 L 74.600 374.200 63.000 374.492 C 35.646 375.181,25.946 375.253,25.367 374.772 C 24.587 374.125,24.512 326.048,25.289 325.271 C 25.778 324.782,56.251 324.850,86.774 325.409 M324.400 325.200 C 324.049 325.427,319.122 325.590,312.549 325.594 C 304.036 325.599,301.200 325.722,300.896 326.100 C 300.252 326.899,299.777 373.450,300.405 374.206 C 300.819 374.705,302.666 374.800,312.000 374.800 C 320.989 374.800,323.377 374.915,324.546 375.403 C 325.789 375.922,329.443 375.992,350.894 375.903 L 375.800 375.800 375.905 362.500 L 376.011 349.200 364.038 349.200 C 357.453 349.200,351.781 349.091,351.433 348.957 C 350.876 348.744,350.800 347.334,350.800 337.237 C 350.800 328.844,350.671 325.631,350.320 325.280 C 349.716 324.676,325.327 324.601,324.400 325.200 M349.120 326.080 C 349.470 326.430,349.602 329.549,349.606 337.580 C 349.610 343.817,349.777 348.860,349.991 349.200 C 350.312 349.707,352.238 349.818,362.472 349.917 C 371.378 350.003,374.655 350.162,374.881 350.517 C 375.492 351.479,375.260 374.252,374.633 374.773 C 374.212 375.122,370.888 375.185,361.733 375.017 C 346.754 374.742,325.437 374.195,325.300 374.082 C 324.700 373.589,325.290 326.388,325.900 326.032 C 326.956 325.417,348.501 325.461,349.120 326.080 " stroke="none" fill="#25562e" fill-rule="evenodd"></path><path id="path6" d="M225.680 100.880 C 224.780 101.780,225.020 123.313,225.938 124.144 C 226.598 124.742,227.904 124.801,238.238 124.706 L 249.800 124.600 249.906 113.048 C 249.982 104.859,249.880 101.337,249.557 100.948 C 248.936 100.200,226.424 100.136,225.680 100.880 M250.667 125.467 C 249.941 126.192,250.385 148.662,251.138 149.344 C 251.798 149.941,253.090 150.001,263.238 149.906 L 274.600 149.800 274.706 138.048 C 274.781 129.711,274.680 126.137,274.357 125.748 C 273.873 125.165,251.237 124.896,250.667 125.467 M275.381 150.905 C 275.275 151.183,275.235 156.628,275.294 163.005 L 275.400 174.600 287.152 174.706 C 295.489 174.781,299.063 174.680,299.452 174.357 C 300.199 173.737,300.264 151.624,299.520 150.880 C 298.810 150.170,275.654 150.194,275.381 150.905 M251.067 175.925 C 250.213 176.870,250.040 198.680,250.880 199.520 C 251.624 200.264,273.737 200.199,274.357 199.452 C 274.680 199.063,274.781 195.489,274.706 187.152 L 274.600 175.400 263.167 175.294 C 252.489 175.195,251.691 175.237,251.067 175.925 " stroke="none" fill="#ebede9" fill-rule="evenodd"></path><path id="path7" d="M25.289 325.271 C 24.512 326.048,24.587 374.125,25.367 374.772 C 25.946 375.253,35.646 375.181,63.000 374.492 L 74.600 374.200 74.706 363.019 C 74.845 348.427,73.281 350.000,87.656 350.000 C 98.237 350.000,98.792 349.963,99.186 349.226 C 99.845 347.995,99.741 326.615,99.074 326.061 C 98.057 325.217,26.113 324.447,25.289 325.271 M325.900 326.032 C 325.290 326.388,324.700 373.589,325.300 374.082 C 325.437 374.195,346.754 374.742,361.733 375.017 C 370.888 375.185,374.212 375.122,374.633 374.773 C 375.260 374.252,375.492 351.479,374.881 350.517 C 374.655 350.162,371.378 350.003,362.472 349.917 C 352.238 349.818,350.312 349.707,349.991 349.200 C 349.777 348.860,349.610 343.817,349.606 337.580 C 349.602 329.549,349.470 326.430,349.120 326.080 C 348.501 325.461,326.956 325.417,325.900 326.032 M74.567 326.243 C 75.547 326.619,75.519 348.184,74.538 349.269 C 73.927 349.944,73.018 350.000,62.670 350.000 C 48.372 350.000,50.000 348.375,50.000 362.644 L 50.000 373.964 48.700 374.198 C 47.985 374.327,42.630 374.380,36.800 374.316 L 26.200 374.200 26.097 350.100 L 25.994 326.000 49.964 326.000 C 63.148 326.000,74.219 326.109,74.567 326.243 M373.920 351.280 C 374.604 351.964,374.604 373.236,373.920 373.920 C 373.296 374.544,351.931 374.605,350.774 373.986 C 349.634 373.376,349.564 351.894,350.700 351.232 C 351.756 350.617,373.301 350.661,373.920 351.280 " stroke="none" fill="#468232" fill-rule="evenodd"></path><path id="path8" d="M23.845 300.688 C 23.710 300.823,23.600 306.033,23.600 312.267 L 23.600 323.600 11.800 323.600 L 0.000 323.600 0.000 350.000 L 0.000 376.400 11.800 376.400 L 23.600 376.400 23.600 388.200 L 23.600 400.000 62.600 400.000 L 101.600 400.000 101.600 388.203 L 101.600 376.406 125.500 376.303 L 149.400 376.200 149.510 364.200 C 149.589 355.489,149.488 351.953,149.142 351.300 L 148.665 350.400 125.012 350.400 C 107.149 350.400,101.243 350.283,100.880 349.920 C 100.212 349.252,100.263 348.520,100.020 362.200 L 99.800 374.600 88.000 374.803 C 79.880 374.943,75.826 375.162,75.000 375.507 C 74.074 375.893,68.146 375.984,49.000 375.904 L 24.200 375.800 24.200 350.000 L 24.200 324.200 36.900 324.094 L 49.600 323.989 49.587 312.894 C 49.577 304.225,49.457 301.645,49.036 301.090 C 48.494 300.376,24.539 299.994,23.845 300.688 M351.074 301.118 C 350.476 301.779,350.400 303.109,350.400 312.851 C 350.400 319.942,350.252 323.988,349.983 324.257 C 349.694 324.546,349.755 324.831,350.183 325.186 C 350.713 325.626,350.800 327.324,350.800 337.206 C 350.800 347.331,350.876 348.744,351.433 348.957 C 351.781 349.091,357.453 349.200,364.038 349.200 L 376.011 349.200 375.905 362.500 L 375.800 375.800 350.894 375.903 C 329.443 375.992,325.789 375.922,324.546 375.403 C 323.377 374.915,320.989 374.800,312.000 374.800 C 302.666 374.800,300.819 374.705,300.405 374.206 C 299.777 373.450,300.252 326.899,300.896 326.100 C 301.200 325.722,304.036 325.599,312.549 325.594 C 319.122 325.590,324.049 325.427,324.400 325.200 C 324.795 324.945,321.026 324.810,313.370 324.806 L 301.739 324.800 300.870 325.726 C 300.020 326.630,300.000 326.905,300.000 337.752 C 300.000 344.639,299.843 349.146,299.586 349.626 C 299.184 350.378,298.494 350.400,275.448 350.400 C 252.796 350.400,251.693 350.434,251.048 351.147 C 250.439 351.819,250.384 353.100,250.486 364.047 L 250.600 376.200 274.500 376.303 L 298.400 376.406 298.400 388.203 L 298.400 400.000 337.400 400.000 L 376.400 400.000 376.400 388.200 L 376.400 376.400 388.200 376.400 L 400.000 376.400 400.000 362.400 L 400.000 348.400 388.203 348.400 L 376.406 348.400 376.303 324.500 L 376.200 300.600 363.974 300.487 C 352.478 300.380,351.708 300.418,351.074 301.118 " stroke="none" fill="#19332d" fill-rule="evenodd"></path></g></svg>